<svg width="17" height="11" viewBox="0 0 17 11" fill="none" xmlns="http://www.w3.org/2000/svg">
<path d="M8.60271 10.4652C11.062 10.4652 10.1851 9.01007 10.375 8.59166C10.3721 8.27918 10.3693 7.97861 10.3806 7.79589C10.5365 7.83694 10.9041 8.01105 11.6634 8.70089C12.8357 9.8065 13.1353 10.4652 14.0824 10.4652H15.8256C16.3781 10.4652 16.6657 10.2514 16.8095 10.072C16.9483 9.89852 17.0843 9.59398 16.9355 9.11996C16.5467 7.97861 14.2786 6.00773 14.1376 5.79985C14.1589 5.76145 14.1929 5.71047 14.2106 5.68399H14.2092C14.6568 5.13119 16.3653 2.73859 16.6168 1.78128C16.6175 1.77996 16.6182 1.77797 16.6182 1.77599C16.7542 1.33904 16.6295 1.05569 16.5006 0.895478C16.3065 0.655821 15.9977 0.534668 15.5805 0.534668H13.8373C13.2536 0.534668 12.8109 0.809413 12.5871 1.31058C12.2124 2.20102 11.1598 4.03221 10.3707 4.68034C10.3466 3.7621 10.3629 3.061 10.3757 2.53998C10.4012 1.52375 10.4833 0.534668 9.35496 0.534668H6.61512C5.90821 0.534668 5.23175 1.25629 5.96417 2.11296C6.6045 2.86371 6.19437 3.28212 6.3325 5.36489C5.79417 4.82533 4.8365 3.36819 4.15933 1.50588C3.9695 1.00207 3.68192 0.53533 2.87229 0.53533H1.12908C0.422167 0.53533 0 0.895478 0 1.49859C0 2.85312 3.20804 10.4652 8.60271 10.4652ZM2.87229 1.52839C3.026 1.52839 3.04158 1.52839 3.15562 1.83094C3.84908 3.73959 5.40458 6.56384 6.54075 6.56384C7.39429 6.56384 7.39429 5.74622 7.39429 5.43838L7.39358 2.98751C7.34683 2.17652 7.03092 1.77268 6.82337 1.52772L9.30821 1.53037C9.30962 1.54163 9.29404 4.24141 9.31529 4.89551C9.31529 5.82434 10.1044 6.35662 11.3362 5.19144C12.636 3.82036 13.5348 1.77069 13.571 1.68727C13.6241 1.56811 13.6701 1.52772 13.8373 1.52772H15.5805H15.5876C15.5869 1.52971 15.5869 1.5317 15.5862 1.53368C15.4268 2.22882 13.8536 4.444 13.3273 5.13185C13.3188 5.14245 13.311 5.1537 13.3032 5.16496C13.0716 5.51848 12.8832 5.90908 13.3351 6.45858H13.3358C13.3769 6.50492 13.4838 6.61349 13.6397 6.76444C14.1242 7.23183 15.7859 8.82999 15.9332 9.46555C15.8355 9.48011 15.7292 9.46952 14.0824 9.47283C13.7317 9.47283 13.4576 8.98292 12.4114 7.99649C11.4707 7.14114 10.8602 6.79158 10.3041 6.79158C9.22462 6.79158 9.30325 7.61052 9.31316 8.60093C9.31671 9.67475 9.30962 9.33513 9.31742 9.40265C9.25437 9.42583 9.07375 9.47217 8.60271 9.47217C4.10833 9.47217 1.1815 2.80479 1.06887 1.53037C1.10783 1.52706 1.64404 1.52905 2.87229 1.52839Z" fill="black"/>
</svg>
